<svg width="72" height="64" viewBox="0 0 72 64" fill="none" xmlns="http://www.w3.org/2000/svg">
<path d="M50.1306 27.1906H38.1195V9.31799L72 4.76778L71.5009 0L0 9.6026L0.499078 14.3704L33.8804 9.88722V27.1904H21.8693C16.0256 27.1904 11.2714 32.5751 11.2714 39.1936V51.9969C11.2714 58.6154 16.0256 64 21.8693 64H50.1306C55.9742 64 60.7285 58.6154 60.7285 51.9969V39.1936C60.7286 32.5752 55.9744 27.1906 50.1306 27.1906ZM25.4021 44.7953H15.5107V39.1939C15.5107 35.2228 18.3632 31.992 21.8694 31.992H25.4021V44.7953ZM42.3588 44.7953H29.6412V31.992H42.3588V44.7953ZM56.4893 44.7953H46.5979V31.992H50.1306C53.6368 31.992 56.4893 35.2228 56.4893 39.1939V44.7953Z" fill="#2B528F"/>
</svg>
