<svg width="56" height="50" viewBox="0 0 56 50" fill="none" xmlns="http://www.w3.org/2000/svg">
<path d="M38.9904 21.5302H29.6485V7.70688L56 4.18758L55.6118 0.5L0 7.92701L0.388172 11.6146L26.3514 8.14715V21.5301H17.0095C12.4644 21.5301 8.76663 25.6948 8.76663 30.8138V40.7163C8.76663 45.8353 12.4644 50 17.0095 50H38.9904C43.5355 50 47.2333 45.8353 47.2333 40.7163V30.8138C47.2334 25.6949 43.5356 21.5302 38.9904 21.5302ZM19.7572 35.1463H12.0638V30.814C12.0638 27.7426 14.2825 25.2438 17.0096 25.2438H19.7572V35.1463ZM32.9457 35.1463H23.0543V25.2438H32.9457V35.1463ZM43.9362 35.1463H36.2428V25.2438H38.9904C41.7175 25.2438 43.9362 27.7426 43.9362 30.814V35.1463Z" fill="white"/>
</svg>
