<svg width="56" height="56" viewBox="0 0 56 56" fill="none" xmlns="http://www.w3.org/2000/svg">
<path d="M47.2522 10.5021C50.1508 10.5021 52.5025 8.15003 52.5025 5.25103C52.5025 2.35202 50.1508 0 47.2522 0C44.3536 0 42.0019 2.35202 42.0019 5.25103C42.0019 8.15003 44.3536 10.5021 47.2522 10.5021ZM55.2371 49.4581C54.2089 48.4298 52.5463 48.4298 51.529 49.4581C50.2055 50.7818 48.1929 51.1428 46.5959 50.4098L31.742 42.7302L37.1235 34.6568C38.5127 32.5782 38.2392 29.7886 36.4672 28.0274L32.0482 23.5968L20.3444 17.7878C20.0272 19.9648 20.7163 22.1637 22.2805 23.739L30.495 31.9656L25.4744 39.4921L3.82785 28.3008C2.54809 27.6445 0.962063 28.1367 0.294838 29.4276C-0.372388 30.7185 0.130765 32.3047 1.42146 32.9611L44.288 55.1139C45.5896 55.7156 46.9678 56 48.346 56C50.8837 56 53.3776 55.0154 55.2371 53.1557C56.2543 52.1383 56.2543 50.4755 55.2371 49.4581ZM13.1253 10.0207L11.8674 12.4821C13.4425 13.2807 15.2801 13.0182 16.5489 11.957L21.7117 14.5169C21.7008 14.5278 21.7008 14.5388 21.6898 14.5497L34.214 20.7634L37.7579 19.3413L38.458 21.4307C38.8955 22.7544 39.8362 23.8375 41.0831 24.461L47.4382 27.6335C49.1773 28.4978 51.2665 27.7976 52.1306 26.0692C52.9947 24.3407 52.2947 22.2403 50.5665 21.376L44.8677 18.5208L42.9973 12.9197C42.1113 10.2723 38.5236 6.72788 33.7546 8.63137L24.8728 12.1868L18.0365 8.79547C18.0693 7.20922 17.2489 5.66673 15.7504 4.90096L14.5363 7.27486H14.5144L10.7517 6.50908C10.5548 6.46533 10.347 6.53096 10.2048 6.69506C9.99696 6.93573 10.0188 7.29674 10.2595 7.50459L13.1253 10.0207Z" fill="#38365F"/>
</svg>
