<svg width="56" height="67" viewBox="0 0 56 67" fill="none" xmlns="http://www.w3.org/2000/svg">
<path d="M12.0614 11.6553C9.91622 11.9123 8.38414 13.9004 8.6408 16.0874L10.338 30.5055C10.4566 31.5139 10.9519 32.3837 11.6438 33.0087C11.8998 33.4677 12.2483 33.8758 12.7097 34.1782L20.93 39.637L20.9874 50.7633C20.9953 52.2872 22.21 53.5128 23.7048 53.5051C25.1956 53.4974 26.3934 52.2594 26.3855 50.7354L26.313 36.681C26.3128 36.66 26.3086 36.639 26.3085 36.6243C26.311 35.508 25.7816 34.4135 24.7988 33.7585L18.0827 29.303L16.7435 17.927L27.9912 17.8689C29.2077 17.8626 30.184 16.8507 30.1776 15.6167C30.1712 14.3828 29.1825 13.3831 27.9681 13.3894L15.7966 13.4522C15.0129 12.216 13.5904 11.4645 12.0614 11.6553ZM32.2124 14.7328L41.1858 5.06048C41.8117 4.38587 41.7738 3.33204 41.101 2.70419C40.411 2.06032 39.325 2.11576 38.7042 2.82654L30.736 11.9499C31.2909 12.3864 31.8977 14.0828 32.2124 14.7328ZM19.92 25.7733C20.4348 26.868 21.9056 27.071 22.6977 26.1567L27.8594 20.1985L23.4096 20.2827L20.1777 23.9569C19.7378 24.457 19.6366 25.1705 19.92 25.7733ZM54.8703 43.2958C54.5538 42.4197 53.6299 42.0077 52.699 41.9709C50.4943 41.8837 49.658 43.6978 49.8322 45.8974C49.92 47.0057 49.3854 47.9531 47.3259 48.2525L3.15126 60.7936C1.22274 61.3411 0.345208 63.5745 1.38525 65.2884C2.09568 66.4591 3.50197 67.0091 4.81815 66.6311L49.2629 53.8668C54.6447 51.8772 55.9878 46.389 54.8703 43.2958ZM13.7812 42.0262C14.3506 42.4836 15.1727 42.3806 15.6213 41.7981C16.0699 41.2219 15.9728 40.3795 15.4013 39.922L6.877 33.1005C6.30763 32.6494 5.48131 32.7504 5.03685 33.3286C4.58829 33.9133 4.47104 34.4773 5.04248 34.9305L13.7812 42.0262ZM11.8905 10.5063C14.6451 10.4627 16.8558 8.12631 16.837 5.28224C16.8223 2.44236 14.559 0.181653 11.8044 0.223202C9.04571 0.258465 6.81848 2.59491 6.84966 5.43891C6.87255 8.27455 9.11942 10.5416 11.8905 10.5063Z" fill="#38365F"/>
</svg>
