<svg width="65" height="53" viewBox="0 0 65 53" fill="none" xmlns="http://www.w3.org/2000/svg">
<path d="M44.9057 22.5172H34.2292V7.71646L62.3988 4.19185C63.4777 4.05686 64.2476 3.07952 64.1262 1.999C64.0026 0.899075 63.0039 0.112324 61.9056 0.249741L2.29162 7.70862C1.21271 7.84362 0.442831 8.82095 0.564236 9.90147C0.687821 11.0014 1.68657 11.7881 2.78486 11.6507L30.4611 8.18785V22.5171H19.7846C14.5902 22.5171 10.3642 26.9762 10.3642 32.4572V43.0599C10.3642 48.5409 14.5902 53 19.7846 53H44.9057C50.1001 53 54.3261 48.5409 54.3261 43.0599V32.4572C54.3262 26.9763 50.1002 22.5172 44.9057 22.5172ZM22.9248 37.0961H14.1325V32.4574C14.1325 29.1689 16.6681 26.4933 19.7847 26.4933H22.9248V37.0961ZM37.9975 37.0961H26.693V26.4933H37.9975V37.0961ZM50.558 37.0961H41.7656V26.4933H44.9057C48.0223 26.4933 50.558 29.1689 50.558 32.4574V37.0961Z" fill="#38365F"/>
</svg>
