<svg width="57" height="52" viewBox="0 0 57 52" fill="none" xmlns="http://www.w3.org/2000/svg">
<path d="M28.8702 2.81544L20.0533 6.00619L16.9418 7.13208L8.12462 10.323C3.835 11.8753 1.68294 16.7189 3.32736 21.1199L6.50844 29.6336C8.15285 34.0347 12.9806 36.3523 17.2702 34.7999L38.0157 27.2923C42.3053 25.7399 44.4574 20.8964 42.813 16.4953L39.6319 7.98161C37.9876 3.58063 33.1599 1.26302 28.8702 2.81544ZM15.092 21.091L7.83104 23.7187L6.43933 19.994C5.45268 17.3533 6.74393 14.4472 9.3177 13.5158L11.9109 12.5773L15.092 21.091ZM27.5392 16.5865L18.2037 19.9649L15.0227 11.4512L24.3581 8.07275L27.5392 16.5865ZM37.9119 12.8327L30.651 15.4603L27.4699 6.94662L30.0631 6.00817C32.6369 5.07674 35.5336 6.46732 36.5202 9.10795L37.9119 12.8327Z" fill="#38365F"/>
<line x1="1.91974" y1="-1.91974" x2="47.4132" y2="-1.91974" transform="matrix(0.933936 -0.357441 0.3675 0.930023 7.71155 46.9618)" stroke="#38365F" stroke-width="3.83949" stroke-linecap="round"/>
<line x1="1.91974" y1="-1.91974" x2="47.4132" y2="-1.91974" transform="matrix(0.933936 -0.357441 0.3675 0.930023 10.2714 52)" stroke="#38365F" stroke-width="3.83949" stroke-linecap="round"/>
</svg>
