<svg width="57" height="56" viewBox="0 0 57 56" fill="none" xmlns="http://www.w3.org/2000/svg">
<path d="M12.591 14C15.4897 14 17.8415 11.6484 17.8415 8.75C17.8415 5.85156 15.4897 3.5 12.591 3.5C9.69233 3.5 7.34055 5.85156 7.34055 8.75C7.34055 11.6484 9.69233 14 12.591 14ZM28.3425 0H24.8422V20.125L28.3425 19.25V0ZM53.7198 31.5C52.276 31.5 51.0946 32.6812 51.0946 34.125C51.0946 35.6453 50.132 37.0234 48.71 37.5484L35.3431 42.4922V27.125C35.3431 26.0422 34.8509 25.025 33.9977 24.3688C33.1445 23.7016 32.0397 23.4609 30.9896 23.7344L23.5186 25.5938L20.8824 19.7203C19.6901 17.0734 16.5836 15.8922 13.9365 17.0844C11.2894 18.2766 10.108 21.3828 11.3003 24.0297C11.3003 24.0297 14.2428 31.2375 14.3412 31.4781C15.2053 33.5672 16.8242 34.4969 18.6947 34.0266L28.3425 31.6094V45.0844L12.5582 50.9141C11.2018 51.4172 10.5018 52.9266 11.005 54.2828C11.3987 55.3438 12.4051 56 13.4661 56C13.7724 56 14.0787 55.9453 14.374 55.8359L50.5258 42.4813C54.0042 41.1906 56.3451 37.8328 56.3451 34.125C56.3451 32.6812 55.1747 31.5 53.7198 31.5ZM21.2981 41.7156C22.6763 41.2562 23.4202 39.7687 22.9608 38.3906C22.5013 37.0125 21.0246 36.2578 19.6354 36.7281L17.6228 37.4062C15.5444 38.1063 13.2474 37.1328 12.2957 35.1422L5.33881 20.5953C4.71531 19.2937 3.1511 18.7359 1.83848 19.3594C0.525861 19.9828 -0.0210648 21.5469 0.60243 22.8594L7.55932 37.4062C9.2001 40.8187 12.6348 42.875 16.2554 42.875C17.6337 42.875 18.115 42.7766 21.2981 41.7156Z" fill="#38365F"/>
</svg>
