<svg width="48" height="48" viewBox="0 0 48 48" fill="none" xmlns="http://www.w3.org/2000/svg">
<path d="M40.5019 9.00176C42.9864 9.00176 45.0022 6.98574 45.0022 4.50088C45.0022 2.01602 42.9864 0 40.5019 0C38.0174 0 36.0017 2.01602 36.0017 4.50088C36.0017 6.98574 38.0174 9.00176 40.5019 9.00176ZM47.3461 42.3927C46.4648 41.5112 45.0397 41.5112 44.1677 42.3927C43.0333 43.5273 41.3082 43.8367 39.9394 43.2084L27.2074 36.6259L31.8202 29.7058C33.0109 27.9242 32.7765 25.5331 31.2576 24.0234L27.4699 20.2258L17.4381 15.2467C17.1662 17.1127 17.7569 18.9975 19.0976 20.3477L26.1386 27.3991L21.8352 33.8504L3.28102 24.2579C2.18408 23.6953 0.824626 24.1172 0.252718 25.2237C-0.31919 26.3301 0.112085 27.6898 1.2184 28.2524L37.9611 47.2405C39.0768 47.7562 40.2582 48 41.4395 48C43.6146 48 45.7522 47.1561 47.3461 45.562C48.218 44.69 48.218 43.2647 47.3461 42.3927ZM11.2502 8.58918L10.172 10.699C11.5221 11.3835 13.0972 11.1584 14.1848 10.2489L18.61 12.4431C18.6007 12.4524 18.6007 12.4618 18.5913 12.4712L29.3263 17.7972L32.3639 16.5782L32.964 18.3692C33.339 19.5038 34.1453 20.4321 35.2141 20.9666L40.6613 23.6859C42.152 24.4266 43.9427 23.8265 44.6834 22.345C45.4241 20.8635 44.824 19.0631 43.3427 18.3223L38.458 15.875L36.8548 11.074C36.0954 8.80484 33.0202 5.76675 28.9325 7.39832L21.3196 10.4458L15.4598 7.53897C15.488 6.17933 14.7848 4.8572 13.5004 4.20082L12.4597 6.23559H12.4409L9.21573 5.57922C9.04698 5.54171 8.86884 5.59797 8.74696 5.73862C8.56882 5.94491 8.58757 6.25435 8.79383 6.43251L11.2502 8.58918Z" fill="white"/>
</svg>
