<svg width="48" height="48" viewBox="0 0 48 48" fill="none" xmlns="http://www.w3.org/2000/svg">
<path d="M34.0004 42V38C34.0004 35.8783 33.1575 33.8434 31.6572 32.3431C30.1569 30.8429 28.1221 30 26.0004 30H10.0004C7.87863 30 5.8438 30.8429 4.34351 32.3431C2.84322 33.8434 2.00037 35.8783 2.00037 38V42" stroke="white" stroke-width="4" stroke-linecap="round" stroke-linejoin="round"/>
<path d="M17.9996 22C22.4179 22 25.9996 18.4183 25.9996 14C25.9996 9.58172 22.4179 6 17.9996 6C13.5814 6 9.99963 9.58172 9.99963 14C9.99963 18.4183 13.5814 22 17.9996 22Z" stroke="white" stroke-width="4" stroke-linecap="round" stroke-linejoin="round"/>
<path d="M45.9996 42.0025V38.0025C45.9983 36.23 45.4083 34.5081 44.3224 33.1071C43.2364 31.7062 41.7159 30.7056 39.9996 30.2625" stroke="white" stroke-width="4" stroke-linecap="round" stroke-linejoin="round"/>
<path d="M32.0004 6.26248C33.7212 6.70308 35.2464 7.70388 36.3356 9.1071C37.4248 10.5103 38.0161 12.2361 38.0161 14.0125C38.0161 15.7888 37.4248 17.5146 36.3356 18.9179C35.2464 20.3211 33.7212 21.3219 32.0004 21.7625" stroke="white" stroke-width="4" stroke-linecap="round" stroke-linejoin="round"/>
</svg>
