<svg width="60" height="58" viewBox="0 0 60 58" fill="none" xmlns="http://www.w3.org/2000/svg">
<path d="M46.6828 36.075L42.9151 33.9473C43.5969 33.2608 44.3788 32.6767 45.2355 32.214C45.7956 31.9053 46.2083 31.3928 46.3837 30.7881C46.5591 30.1833 46.483 29.5353 46.172 28.9852C45.8611 28.435 45.3404 28.0272 44.7233 27.8506C44.1063 27.674 43.4428 27.7428 42.8774 28.0421C41.2416 28.9272 39.7921 30.1072 38.6055 31.5196L28.8417 26L38.6033 20.4902C39.7896 21.9029 41.2392 23.0829 42.8752 23.9677C43.1556 24.1222 43.4645 24.221 43.7842 24.2582C44.1038 24.2954 44.4279 24.2703 44.7376 24.1845C45.0472 24.0987 45.3365 23.9537 45.5886 23.758C45.8407 23.5623 46.0506 23.3197 46.2063 23.0443C46.362 22.7688 46.4603 22.466 46.4957 22.1532C46.531 21.8404 46.5026 21.5238 46.4122 21.2218C46.3217 20.9198 46.171 20.6383 45.9686 20.3935C45.7663 20.1488 45.5164 19.9456 45.2333 19.7957C44.3768 19.3328 43.5949 18.7487 42.9129 18.0624L46.6806 15.9347C46.9688 15.7841 47.223 15.5784 47.4283 15.3298C47.6335 15.0811 47.7855 14.7947 47.8753 14.4875C47.965 14.1803 47.9907 13.8586 47.9507 13.5415C47.9108 13.2245 47.806 12.9185 47.6427 12.6417C47.4793 12.365 47.2608 12.1232 46.9999 11.9308C46.7391 11.7383 46.4414 11.599 46.1244 11.5213C45.8074 11.4435 45.4777 11.4289 45.1548 11.4782C44.8319 11.5275 44.5225 11.6398 44.2449 11.8083L40.4772 13.9349C40.2088 13.014 40.0811 12.0594 40.0982 11.102C40.1052 10.7885 40.0489 10.4766 39.9325 10.1844C39.816 9.8922 39.6417 9.62532 39.4196 9.39907C39.1974 9.17283 38.9318 8.99168 38.6379 8.866C38.3439 8.74032 38.0276 8.67258 37.7068 8.66667H37.6614C37.0226 8.66656 36.4093 8.91155 35.9534 9.34895C35.4975 9.78635 35.2354 10.3812 35.2235 11.0056C35.1891 12.832 35.5087 14.6482 36.1654 16.3583L26.4038 21.8714V10.8528C28.2482 10.5548 30.0181 9.91779 31.6198 8.97542C32.1736 8.64917 32.5722 8.12119 32.7279 7.50763C32.8835 6.89408 32.7835 6.2452 32.4498 5.70375C32.1161 5.1623 31.576 4.77263 30.9484 4.62046C30.3208 4.46829 29.657 4.56608 29.1032 4.89233C28.2636 5.38565 27.3539 5.75474 26.4038 5.98758V2.38333C26.4038 1.75123 26.1469 1.14502 25.6897 0.698062C25.2325 0.251101 24.6124 0 23.9658 0C23.3193 0 22.6992 0.251101 22.242 0.698062C21.7848 1.14502 21.5279 1.75123 21.5279 2.38333V5.98758C20.5778 5.75474 19.6681 5.38565 18.8285 4.89233C18.2746 4.56608 17.6109 4.46829 16.9833 4.62046C16.3557 4.77263 15.8156 5.1623 15.4819 5.70375C15.1482 6.2452 15.0481 6.89408 15.2038 7.50763C15.3595 8.12119 15.7581 8.64917 16.3119 8.97542C17.9136 9.91779 19.6835 10.5548 21.5279 10.8528V21.8714L11.7663 16.3583C12.424 14.6476 12.7443 12.8307 12.7104 11.0034C12.6985 10.379 12.4364 9.78419 11.9805 9.34679C11.5246 8.90939 10.9113 8.66439 10.2725 8.6645H10.2249C9.90471 8.67028 9.58884 8.73766 9.29532 8.86281C9.00179 8.98795 8.73637 9.1684 8.51419 9.39385C8.29202 9.6193 8.11746 9.88533 8.00047 10.1767C7.88349 10.4682 7.82638 10.7793 7.8324 11.0922C7.85026 12.051 7.72293 13.0071 7.45452 13.9295L3.68684 11.8083C3.40939 11.6465 3.10181 11.5403 2.78198 11.4957C2.46215 11.4511 2.13645 11.4691 1.8238 11.5487C1.51115 11.6282 1.2178 11.7678 0.960791 11.9591C0.70378 12.1505 0.488237 12.3899 0.326689 12.6634C0.165142 12.9369 0.0608109 13.2391 0.0197609 13.5523C-0.0212891 13.8656 0.00176019 14.1837 0.0875695 14.4882C0.173379 14.7927 0.320237 15.0775 0.519607 15.326C0.718978 15.5745 0.966886 15.7818 1.24892 15.9358L5.01661 18.0635C4.33459 18.7498 3.55268 19.3338 2.69616 19.7968C2.41308 19.9467 2.16317 20.1498 1.96084 20.3946C1.75851 20.6394 1.60776 20.9209 1.5173 21.2229C1.42684 21.5249 1.39846 21.8415 1.4338 22.1543C1.46913 22.4671 1.56748 22.7699 1.72317 23.0454C1.87886 23.3208 2.08881 23.5634 2.3409 23.7591C2.59299 23.9548 2.88223 24.0997 3.19192 24.1856C3.50162 24.2714 3.82564 24.2965 4.14529 24.2593C4.46493 24.222 4.77387 24.1233 5.05428 23.9688C6.69005 23.0836 8.13955 21.9037 9.32617 20.4912L19.09 26L9.32839 31.5098C8.14177 30.0974 6.69226 28.9174 5.0565 28.0323C4.77609 27.8778 4.46715 27.779 4.1475 27.7418C3.82786 27.7046 3.50383 27.7297 3.19414 27.8155C2.88444 27.9013 2.5952 28.0463 2.34312 28.242C2.09103 28.4377 1.88108 28.6803 1.72539 28.9557C1.5697 29.2312 1.47135 29.534 1.43601 29.8468C1.40068 30.1596 1.42906 30.4762 1.51952 30.7782C1.60998 31.0802 1.76072 31.3617 1.96306 31.6065C2.16539 31.8512 2.4153 32.0544 2.69837 32.2043C3.55489 32.6672 4.3368 33.2513 5.01882 33.9376L1.24892 36.075C0.966886 36.229 0.718978 36.4363 0.519607 36.6848C0.320237 36.9334 0.173379 37.2181 0.0875695 37.5226C0.00176019 37.8271 -0.0212891 38.1452 0.0197609 38.4585C0.0608109 38.7718 0.165142 39.0739 0.326689 39.3475C0.488237 39.621 0.70378 39.8604 0.960791 40.0517C1.2178 40.2431 1.51115 40.3826 1.8238 40.4621C2.13645 40.5417 2.46215 40.5597 2.78198 40.5151C3.10181 40.4706 3.40939 40.3643 3.68684 40.2025L7.45452 38.0759C7.72287 38.9968 7.85057 39.9514 7.83351 40.9088C7.82223 41.5402 8.06773 42.1502 8.5161 42.6048C8.96447 43.0593 9.57905 43.3214 10.2249 43.3333H10.2703C10.9091 43.3334 11.5224 43.0884 11.9783 42.651C12.4342 42.2136 12.6963 41.6188 12.7082 40.9944C12.7426 39.168 12.423 37.3518 11.7663 35.6417L21.5279 30.1286V41.1472C19.6835 41.4452 17.9136 42.0822 16.3119 43.0246C15.7581 43.3508 15.3595 43.8788 15.2038 44.4924C15.0481 45.1059 15.1482 45.7548 15.4819 46.2962C15.8156 46.8377 16.3557 47.2274 16.9833 47.3795C17.6109 47.5317 18.2746 47.4339 18.8285 47.1077C19.6681 46.6143 20.5778 46.2453 21.5279 46.0124V49.6167C21.5279 50.2488 21.7848 50.855 22.242 51.3019C22.6992 51.7489 23.3193 52 23.9658 52C24.6124 52 25.2325 51.7489 25.6897 51.3019C26.1469 50.855 26.4038 50.2488 26.4038 49.6167V46.0124C27.3539 46.2453 28.2636 46.6143 29.1032 47.1077C29.657 47.4339 30.3208 47.5317 30.9484 47.3795C31.576 47.2274 32.1161 46.8377 32.4498 46.2962C32.7835 45.7548 32.8835 45.1059 32.7279 44.4924C32.5722 43.8788 32.1736 43.3508 31.6198 43.0246C30.0181 42.0822 28.2482 41.4452 26.4038 41.1472V30.1286L36.1654 35.6417C35.5077 37.3524 35.1873 39.1693 35.2213 40.9966C35.2332 41.621 35.4953 42.2158 35.9512 42.6532C36.4071 43.0906 37.0204 43.3356 37.6592 43.3355H37.7068C38.027 43.3297 38.3428 43.2623 38.6364 43.1372C38.9299 43.012 39.1953 42.8316 39.4175 42.6062C39.6397 42.3807 39.8142 42.1147 39.9312 41.8233C40.0482 41.5318 40.1053 41.2207 40.0993 40.9077C40.0814 39.949 40.2088 38.9929 40.4772 38.0705L44.2449 40.1971C44.5223 40.3712 44.833 40.4886 45.1581 40.542C45.4833 40.5954 45.8161 40.5838 46.1366 40.5078C46.457 40.4319 46.7583 40.2931 47.0223 40.1001C47.2864 39.907 47.5076 39.6636 47.6726 39.3845C47.8377 39.1055 47.9431 38.7966 47.9825 38.4766C48.0219 38.1566 47.9946 37.8321 47.902 37.5227C47.8095 37.2134 47.6537 36.9255 47.4442 36.6767C47.2346 36.4279 46.9756 36.2232 46.6828 36.075Z" fill="white"/>
<circle cx="44" cy="42" r="16" fill="white"/>
<path d="M42.816 46.24V48H34.56V46.608L39.008 42.384C39.5093 41.904 39.8453 41.488 40.016 41.136C40.1973 40.7733 40.288 40.416 40.288 40.064C40.288 39.5413 40.112 39.1413 39.76 38.864C39.408 38.5867 38.8907 38.448 38.208 38.448C37.0667 38.448 36.192 38.8373 35.584 39.616L34.128 38.496C34.5653 37.9093 35.152 37.456 35.888 37.136C36.6347 36.8053 37.4667 36.64 38.384 36.64C39.6 36.64 40.5707 36.928 41.296 37.504C42.0213 38.08 42.384 38.864 42.384 39.856C42.384 40.464 42.256 41.0347 42 41.568C41.744 42.1013 41.2533 42.7093 40.528 43.392L37.536 46.24H42.816ZM53.7661 45.456H51.7821V48H49.7661V45.456H43.6221V44.016L49.1421 36.8H51.3661L46.1661 43.696H49.8301V41.44H51.7821V43.696H53.7661V45.456Z" fill="black"/>
</svg>
